<svg width="780" height="500" viewBox="0 0 780 500" fill="none" xmlns="http://www.w3.org/2000/svg">
  <rect width="780" height="500" fill="white"/>
  <path d="M242.59 194.15C235.17 203.55 223.14 211.11 211.11 209.96C209.21 196.78 215.58 183.03 222.56 174.78C229.98 165.39 243.16 158.39 254.05 157.24C255.68 170.99 249.32 184.47 242.59 194.15Z" fill="black"/>
  <path d="M253.77 212.54C238.21 211.67 225.03 221.36 217.61 221.36C210.19 221.36 199.08 213.23 186.75 213.52C170.91 213.8 156.3 223.21 148.03 238.21C131.62 268.18 143.65 312.58 159.5 337.44C167.29 349.47 176.69 362.66 189.22 362.37C201.18 362.09 205.74 355.26 220.1 355.26C234.45 355.26 238.49 362.37 251.02 362.09C263.83 361.8 271.96 350.05 279.66 338.02C288.52 324.26 292.21 310.78 292.5 309.91C292.21 309.63 262.96 298.17 262.68 268.47C262.4 243.9 281.84 230.99 283.06 229.53C272.24 213.13 254.63 212.83 253.77 212.54Z" fill="black"/>
  <path d="M364.73 198.43V361.33H387.74V301.14H430.57C469.29 301.14 495.5 276.08 495.5 239.5C495.5 202.91 469.58 177.86 431.15 177.86H364.73V198.43ZM387.74 197.85H425.73C452.23 197.85 472.21 213.71 472.21 239.78C472.21 265.85 452.23 281.71 425.44 281.71H387.74V197.85Z" fill="black"/>
  <path d="M576.76 362.37C605.31 362.37 625.58 348.36 636.12 325.64L615.85 314.23C608.71 329.22 595.56 338.31 576.76 338.31C547.05 338.31 527.35 319.22 527.35 289.23V288.94H638.46V280.14C638.46 236.16 611.09 209.02 574.7 209.02C535.37 209.02 504.93 238.44 504.93 285.98C504.93 334.38 534.93 362.37 576.76 362.37ZM527.35 268.33C528.21 244.84 546.18 232.97 574.41 232.97C601.53 232.97 619.93 245.98 619.93 268.33H527.35Z" fill="black"/>
</svg> 