<svg width="780" height="500" viewBox="0 0 780 500" fill="none" xmlns="http://www.w3.org/2000/svg">
  <rect width="780" height="500" fill="white"/>
  <path d="M490 167.5H290V332.5H490V167.5Z" fill="#FF5F00"/>
  <path d="M311.9 250C311.9 216.3 327.5 186.1 352 167.5C332.9 152.6 309.1 144 283.3 144C220.2 144 169 191 169 250C169 309 220.2 356 283.3 356C309.1 356 332.9 347.4 352 332.5C327.5 313.9 311.9 283.7 311.9 250Z" fill="#EB001B"/>
  <path d="M611 250C611 309 559.8 356 496.7 356C470.9 356 447.1 347.4 428 332.5C452.5 313.9 468.1 283.7 468.1 250C468.1 216.3 452.5 186.1 428 167.5C447.1 152.6 470.9 144 496.7 144C559.8 144 611 191 611 250Z" fill="#F79E1B"/>
</svg> 