<svg width="780" height="500" viewBox="0 0 780 500" fill="none" xmlns="http://www.w3.org/2000/svg">
  <rect width="780" height="500" fill="white"/>
  <path d="M300.063 239.948C299.565 243.439 296.571 245.934 293.078 245.934H280.19L280.437 244.437C280.437 244.437 287.176 203.96 287.176 203.465C287.176 202.471 288.171 201.477 289.413 201.477H295.157C306.555 201.477 311.46 206.454 310.466 214.933C309.719 223.163 306.049 234.724 300.063 239.948ZM303.305 192.401H280.19C275.951 192.401 272.706 195.644 272.21 199.729L257.822 288.907C257.573 290.647 258.816 292.14 260.568 292.14H272.458L278.698 254.412C278.946 253.417 279.443 252.92 279.94 252.92H290.159C310.714 252.92 322.859 243.937 326.352 222.168C327.844 213.194 326.848 205.957 323.107 200.98C318.869 195.39 312.134 192.401 303.305 192.401Z" fill="#27346A"/>
  <path d="M354.354 239.948C353.856 243.439 350.862 245.934 347.369 245.934H334.482L334.728 244.437C334.728 244.437 341.467 203.96 341.467 203.465C341.467 202.471 342.462 201.477 343.704 201.477H349.448C360.846 201.477 365.751 206.454 364.757 214.933C364.01 223.163 360.34 234.724 354.354 239.948ZM357.596 192.401H334.482C330.243 192.401 326.998 195.644 326.5 199.729L312.114 288.907C311.865 290.647 313.107 292.14 314.859 292.14H327.247C331.486 292.14 334.73 288.907 335.228 284.813L341.218 247.674C341.467 243.688 344.711 240.445 348.951 240.445H359.329C379.884 240.445 392.029 231.462 395.522 209.701C397.014 200.727 396.018 193.49 392.277 188.513C388.038 195.39 381.304 192.401 357.596 192.401Z" fill="#27346A"/>
  <path d="M416.822 246.185H405.173C404.178 246.185 403.431 246.93 403.431 247.924L402.684 253.154L401.441 251.413C399.452 248.669 394.795 247.427 390.059 247.427C378.165 247.427 368.28 256.904 366.539 269.705C365.619 276.027 367.112 282.022 370.604 286.254C373.849 290.24 378.584 291.978 384.576 291.978C393.901 291.978 399.147 286.751 399.147 286.751L398.401 291.978C398.152 293.718 399.395 295.211 401.145 295.211H411.549C415.788 295.211 419.032 291.978 419.53 287.884L427.116 252.41C427.365 250.67 426.123 249.177 424.37 249.177H417.134C417.085 246.93 416.822 246.183 416.822 246.183V246.185ZM402.436 269.954C401.442 275.925 396.537 279.911 390.555 279.911C387.568 279.911 385.074 278.918 383.58 277.18C382.085 275.43 381.588 272.935 382.087 270.201C382.996 264.24 388.063 260.254 393.897 260.254C396.795 260.254 399.299 261.247 400.882 262.996C402.377 264.736 402.964 267.221 402.436 269.954Z" fill="#27346A"/>
  <path d="M470.875 246.185H459.226C458.231 246.185 457.484 246.93 457.484 247.924L448.006 295.211H458.729C462.968 295.211 466.212 291.978 466.71 287.884L475.29 249.177C475.539 247.437 474.297 245.944 472.545 245.944H470.881L470.875 246.185Z" fill="#27346A"/>
  <path d="M490.184 201.971L487.936 216.181C487.188 221.158 489.691 225.888 494.843 225.888H518.698L515.704 243.439C515.455 245.179 516.698 246.672 518.45 246.672H530.089C534.328 246.672 537.572 243.439 538.07 239.344L544.309 201.971C544.558 200.232 543.315 198.729 541.563 198.729H494.843C492.349 198.729 490.433 200.232 490.184 201.971Z" fill="#27346A"/>
  <path d="M548.637 246.185H536.988C535.993 246.185 535.246 246.93 535.246 247.924L534.5 253.154L533.257 251.413C531.267 248.669 526.61 247.427 521.874 247.427C509.98 247.427 500.096 256.904 498.354 269.705C497.435 276.027 498.928 282.022 502.42 286.254C505.664 290.24 510.4 291.978 516.391 291.978C525.716 291.978 530.962 286.751 530.962 286.751L530.216 291.978C529.967 293.718 531.21 295.211 532.962 295.211H543.364C547.603 295.211 550.847 291.978 551.345 287.884L558.93 252.41C559.18 250.67 557.937 249.177 556.184 249.177H548.899C548.65 246.93 548.637 246.183 548.637 246.183V246.185ZM533.754 269.954C532.759 275.925 527.854 279.911 521.873 279.911C518.885 279.911 516.391 278.918 514.898 277.18C513.401 275.43 512.904 272.935 513.402 270.201C514.312 264.24 519.378 260.254 525.213 260.254C528.111 260.254 530.615 261.247 532.198 262.996C533.754 264.736 534.252 267.221 533.754 269.954Z" fill="#27346A"/>
  <path d="M345.132 222.665C344.634 226.155 341.64 228.651 338.147 228.651H325.259L325.507 227.154C325.507 227.154 332.245 186.677 332.245 186.183C332.245 185.188 333.241 184.195 334.482 184.195H340.226C351.625 184.195 356.53 189.172 355.535 197.651C354.85 205.88 351.118 217.441 345.132 222.665ZM348.375 175.118H325.259C321.02 175.118 317.776 178.362 317.278 182.446L302.89 271.624C302.641 273.365 303.883 274.858 305.636 274.858H317.525L323.765 237.13C324.014 236.135 324.511 235.638 325.008 235.638H335.228C355.783 235.638 367.927 226.654 371.42 204.885C372.913 195.911 371.917 188.674 368.176 183.697C363.999 178.107 357.205 175.118 348.375 175.118Z" fill="#2790C3"/>
  <path d="M399.147 222.665C398.649 226.155 395.655 228.651 392.162 228.651H379.275L379.523 227.154C379.523 227.154 386.262 186.677 386.262 186.183C386.262 185.188 387.257 184.195 388.499 184.195H394.243C405.641 184.195 410.546 189.172 409.552 197.651C408.805 205.88 405.134 217.441 399.147 222.665ZM402.39 175.118H379.275C375.036 175.118 371.792 178.362 371.294 182.446L356.906 271.624C356.657 273.365 357.9 274.858 359.652 274.858H372.04C376.279 274.858 379.523 271.624 380.021 267.53L386.01 230.391C386.26 226.405 389.503 223.162 393.743 223.162H404.121C424.676 223.162 436.821 214.179 440.313 192.418C441.806 183.444 440.81 176.207 437.069 171.23C432.794 178.107 426.099 175.118 402.39 175.118Z" fill="#2790C3"/>
  <path d="M461.616 228.902H449.967C448.972 228.902 448.225 229.648 448.225 230.641L447.478 235.872L446.235 234.13C444.246 231.387 439.589 230.144 434.853 230.144C422.959 230.144 413.074 239.621 411.333 252.422C410.413 258.744 411.906 264.739 415.398 268.971C418.642 272.957 423.378 274.695 429.37 274.695C438.695 274.695 443.94 269.468 443.94 269.468L443.194 274.695C442.945 276.435 444.188 277.928 445.938 277.928H456.342C460.581 277.928 463.825 274.695 464.323 270.6L471.909 235.127C472.158 233.387 470.915 231.894 469.163 231.894H461.878C461.629 229.647 461.616 228.9 461.616 228.9V228.902ZM446.733 252.669C445.738 258.64 440.833 262.626 434.852 262.626C431.864 262.626 429.37 261.633 427.877 259.895C426.382 258.145 425.885 255.651 426.383 252.916C427.293 246.955 432.359 242.969 438.193 242.969C441.091 242.969 443.595 243.963 445.179 245.711C446.674 247.451 447.261 249.936 446.733 252.669Z" fill="#2790C3"/>
  <path d="M515.67 228.902H504.02C503.025 228.902 502.278 229.648 502.278 230.641L492.8 277.928H503.523C507.762 277.928 511.006 274.695 511.504 270.6L520.085 231.894C520.334 230.154 519.091 228.66 517.339 228.66H515.675L515.67 228.902Z" fill="#2790C3"/>
  <path d="M534.979 184.688L532.73 198.898C531.983 203.875 534.486 208.605 539.638 208.605H563.493L560.498 226.156C560.249 227.896 561.493 229.389 563.245 229.389H574.883C579.122 229.389 582.366 226.156 582.864 222.062L589.104 184.688C589.353 182.949 588.11 181.446 586.358 181.446H539.638C537.144 181.446 535.228 182.949 534.979 184.688Z" fill="#2790C3"/>
  <path d="M593.432 228.902H581.782C580.787 228.902 580.04 229.648 580.04 230.641L579.294 235.872L578.051 234.13C576.062 231.387 571.404 230.144 566.668 230.144C554.774 230.144 544.89 239.621 543.148 252.422C542.229 258.744 543.722 264.739 547.214 268.971C550.458 272.957 555.194 274.695 561.186 274.695C570.51 274.695 575.756 269.468 575.756 269.468L575.01 274.695C574.761 276.435 576.004 277.928 577.756 277.928H588.158C592.397 277.928 595.641 274.695 596.139 270.6L603.725 235.127C603.974 233.387 602.732 231.894 600.979 231.894H593.694C593.445 229.647 593.432 228.9 593.432 228.9V228.902ZM578.548 252.669C577.553 258.64 572.648 262.626 566.667 262.626C563.68 262.626 561.186 261.633 559.692 259.895C558.198 258.145 557.7 255.651 558.198 252.916C559.108 246.955 564.173 242.969 570.008 242.969C572.905 242.969 575.41 243.963 576.993 245.711C578.487 247.451 579.055 249.936 578.548 252.669Z" fill="#2790C3"/>
</svg> 