<svg width="780" height="500" viewBox="0 0 780 500" fill="none" xmlns="http://www.w3.org/2000/svg">
  <rect width="780" height="500" fill="white"/>
  <path d="M293.2 348.73H235.57L270.27 149.69H327.91L293.2 348.73Z" fill="#00579F"/>
  <path d="M566.59 155.6C556.28 151.54 539.88 147 519.76 147C458.63 147 416.15 178.15 415.97 223.4C415.67 256.3 446.17 274.18 468.95 285.18C492.27 296.42 499.65 303.6 499.59 313.72C499.47 329.32 480.77 336.6 463.46 336.6C439.08 336.6 425.89 332.54 405.54 322.48L397.27 318.78L388.42 366.96C400.9 372.6 424.64 377.65 449.33 377.9C514.35 377.9 556.17 347.05 556.47 298.9C556.59 273.15 540.66 253.1 506.02 236.6C485.25 225.9 473.19 218.6 473.31 207.78C473.31 198.15 484.37 188.15 507.5 188.15C526.72 188.03 540.43 193.03 550.99 198.15L556.89 200.78L566.59 155.6Z" fill="#00579F"/>
  <path d="M651.63 259.84C655.97 248.6 673.11 200.24 673.11 200.24C672.87 200.6 678.16 185.97 681.11 177.2L685.33 198.73C685.33 198.73 695.52 249.9 697.58 259.84H651.63ZM723.69 149.69H680.51C667.32 149.69 657.59 153.39 652.03 167.38L562.61 348.73H627.63C627.63 348.73 638.68 320.48 641.39 313.36H706.65C708.71 322.72 714.58 348.73 714.58 348.73H771.99L723.69 149.69Z" fill="#00579F"/>
  <path d="M185.78 149.69L123.82 285.42L117.35 254.78C106.29 219.78 77.46 182.15 45 165.75L101.89 348.6H167.38L262.53 149.66H185.78V149.69Z" fill="#00579F"/>
  <path d="M86.54 149.69H7.87L7 153.39C67.26 168.9 107.24 208.15 117.35 254.78L100.94 167.38C98 153.75 93.18 150.05 86.54 149.69Z" fill="#F9A533"/>
</svg> 